<?xml version="1.0" standalone="no"?>
<!DOCTYPE svg PUBLIC "-//W3C//DTD SVG 20010904//EN"
 "http://www.w3.org/TR/2001/REC-SVG-20010904/DTD/svg10.dtd">
<svg version="1.0" xmlns="http://www.w3.org/2000/svg"
 width="1200.000000pt" height="1200.000000pt" viewBox="0 0 1200.000000 1200.000000"
 preserveAspectRatio="xMidYMid meet">

<g transform="translate(0.000000,1200.000000) scale(0.100000,-0.100000)"
fill="#3f3cbb" stroke="none">
<path d="M6815 8972 c-90 -42 -50 68 -665 -1860 l-565 -1772 -484 0 c-411 0
-482 -2 -478 -14 3 -8 126 -193 273 -412 147 -218 267 -402 267 -408 0 -6
-122 -194 -271 -419 -150 -224 -272 -409 -272 -412 0 -3 97 -5 216 -5 l215 0
-7 -22 c-4 -13 -34 -106 -67 -208 -66 -203 -73 -260 -42 -324 38 -79 141 -122
228 -96 26 7 58 29 82 54 43 44 35 23 160 419 l56 177 965 0 965 0 -279 417
-279 417 269 404 c148 222 272 410 275 418 4 12 -95 14 -686 14 -394 0 -691 4
-691 9 0 5 243 771 541 1702 424 1326 541 1705 541 1747 2 135 -146 231 -267
174z m-310 -3796 c57 -26 99 -70 127 -133 14 -33 18 -61 16 -120 l-3 -78 -85
0 -85 0 -5 68 c-4 60 -9 72 -33 93 -31 26 -92 33 -129 13 -25 -13 -48 -68 -48
-113 0 -61 38 -135 165 -326 181 -271 235 -408 216 -540 -12 -84 -25 -117 -50
-125 -14 -4 -21 -15 -21 -30 0 -13 -11 -36 -24 -52 -22 -26 -29 -27 -123 -31
-167 -7 -255 33 -307 141 -30 62 -50 184 -36 222 9 24 13 25 89 25 51 0 82 -4
88 -12 6 -7 13 -42 15 -79 8 -98 36 -129 117 -129 74 0 107 72 77 172 -19 65
-93 196 -194 343 -198 289 -233 497 -108 633 58 64 103 82 206 82 68 0 95 -5
135 -24z m-727 -10 c91 -33 143 -96 162 -194 5 -29 10 -247 10 -485 1 -406 0
-436 -19 -497 -23 -75 -69 -127 -141 -159 -40 -18 -66 -21 -222 -21 -159 0
-178 2 -187 18 -5 10 -10 288 -10 679 -2 626 -1 662 16 673 28 17 337 7 391
-14z"/>
<path d="M5565 5008 c-2 -7 -5 -100 -7 -206 -3 -150 -7 -195 -18 -202 -11 -7
-10 -11 3 -25 18 -18 23 -148 17 -453 l-2 -143 78 3 79 3 23 45 c22 44 22 48
22 470 0 385 -2 428 -18 460 -9 19 -28 40 -42 47 -33 17 -129 17 -135 1z"/>
<path d="M4140 7961 c-14 -4 -508 -330 -1097 -724 -1160 -777 -1142 -763
-1216 -905 -99 -188 -101 -388 -6 -581 77 -156 56 -140 1243 -932 l1068 -714
67 0 c58 0 74 4 108 28 89 61 113 174 57 263 -26 40 -149 125 -1094 757 -993
664 -1067 715 -1095 761 -26 43 -30 59 -30 121 0 62 4 78 30 121 28 46 99 95
1100 764 993 664 1072 718 1095 760 68 124 -15 279 -153 286 -29 2 -63 0 -77
-5z"/>
<path d="M7710 7948 c-96 -52 -132 -173 -80 -268 23 -42 101 -96 1090 -756
785 -524 1072 -720 1092 -748 38 -53 54 -131 39 -193 -24 -96 -36 -106 -501
-416 -1507 -1005 -1694 -1134 -1719 -1178 -50 -87 -23 -197 62 -256 34 -24 50
-28 107 -28 l67 0 1064 710 c1185 791 1171 780 1248 936 95 193 93 392 -7 584
-74 141 -80 145 -1239 918 -1055 705 -1062 709 -1120 714 -48 4 -66 1 -103
-19z"/>
</g>
</svg>
